<svg viewBox="-0.5 -0.5 4.5 3" xmlns="http://www.w3.org/2000/svg" width="500" height="333">
  <defs>
    <style>
      .triangle { fill: rgba(0, 255, 0, 0.1); stroke: rgba(0, 255, 0, 0.5); stroke-width: 0.05; }
      .line-solid { stroke: rgba(0, 255, 0, 0.5); stroke-width: 0.05; fill: none; }
      .point-green { fill: rgba(0, 255, 0, 0.1); stroke: rgba(0, 255, 0, 0.8); stroke-width: 0.025; }
      .point-red { fill: rgba(255, 0, 0, 0.1); stroke: rgba(255, 0, 0, 0.8); stroke-width: 0.025; }
    </style>
  </defs>
  
  <g transform="scale(1, -1) translate(0, -2.5)">
    <!-- Main triangle -->
    <path d="M 0,0 L 2,0 L 1,2 Z" class="triangle"/>
    
    <!-- Calculated intersections:
         Path 1 and Triangle:
           intersection-1 (E-1): x ≈ 1.385, y ≈ 1.231
           intersection-2 (E-2): x ≈ 0.545, y ≈ 1.091
         
         Path 2 (triangle) and Path 3:
           intersection-1 (from path 2&3): x ≈ 1.571, y ≈ 0.857
         
         Path 1 and Path 3:
           intersection-1 (F-1): x ≈ 1.952, y ≈ 1.325
    -->
    
    <!-- Line from (3, 1.5) to intersection-1 of paths 1&2 -->
    <line x1="3" y1="1.5" x2="1.385" y2="1.231" class="line-solid"/>
    
    <!-- Line from intersection-1 to intersection-2 of paths 1&2 -->
    <line x1="1.385" y1="1.231" x2="0.545" y2="1.091" class="line-solid"/>
    
    <!-- Line from intersection-2 to (0, 1) -->
    <line x1="0.545" y1="1.091" x2="0" y2="1" class="line-solid"/>
    
    <!-- Line from (1.2, 0.4) to intersection-1 of paths 2&3 -->
    <line x1="1.2" y1="0.4" x2="1.571" y2="0.857" class="line-solid"/>
    
    <!-- Line from E-1 (path 2&3 intersection) to F-1 (path 1&3 intersection), shorten >= 0.1cm -->
    <line x1="1.571" y1="0.857" x2="1.889" y2="1.247" class="line-solid"/>
    
    <!-- Line from F-1 to (2.5, 2), shorten <= 0.1cm -->
    <line x1="2.015" y1="1.403" x2="2.5" y2="2" class="line-solid"/>
    
    <!-- Line from E-2 (intersection-2 of paths 1&2) to (1.2, 0.4) -->
    <line x1="0.545" y1="1.091" x2="1.2" y2="0.4" class="line-solid"/>
    
    <!-- Line from E-1 (intersection-1 of paths 1&2) to (1.2, 0.4) -->
    <line x1="1.385" y1="1.231" x2="1.2" y2="0.4" class="line-solid"/>
    
    <!-- Line from (1.2, 0.4) to (0, 0) -->
    <line x1="1.2" y1="0.4" x2="0" y2="0" class="line-solid"/>
    
    <!-- Line from (1.2, 0.4) to (2, 0) -->
    <line x1="1.2" y1="0.4" x2="2" y2="0" class="line-solid"/>
    
    <!-- Green points (original vertices) -->
    <circle cx="0" cy="0" r="0.07" class="point-green"/>
    <circle cx="2" cy="0" r="0.07" class="point-green"/>
    <circle cx="1" cy="2" r="0.07" class="point-green"/>
    <circle cx="0" cy="1" r="0.07" class="point-green"/>
    <circle cx="3" cy="1.5" r="0.07" class="point-green"/>
    <circle cx="2.5" cy="2" r="0.07" class="point-green"/>
    <circle cx="1.2" cy="0.4" r="0.07" class="point-green"/>
    
    <!-- Red points (intersections) -->
    <!-- intersection-1 of paths 1&2 -->
    <circle cx="1.385" cy="1.231" r="0.07" class="point-red"/>
    <!-- intersection-2 of paths 1&2 -->
    <circle cx="0.545" cy="1.091" r="0.07" class="point-red"/>
    <!-- intersection-1 of paths 1&3 (F-1) -->
    <circle cx="1.952" cy="1.325" r="0.07" class="point-red"/>
    <!-- intersection-1 of paths 2&3 -->
    <circle cx="1.571" cy="0.857" r="0.07" class="point-red"/>
  </g>
</svg>